# xmcd
#
# Track frame offsets:
# 150
# 12685
# 32340
# 46644
# 69514
# 86085
# 107100
# 128556
# 157553
# 171293
# 190219
#
# Disc length: 2582 seconds
#
#
# Revision: 0
# Processed by: cddbd v1.5.2PL0 Copyright (c) Steve Scherf et al.
# Submitted via: Nero 7, 11, 10, 0 
#
DISCID=7f0a140b
DTITLE=Pete Romano - Sublime To Ridiculous
DYEAR=2002
DGENRE=Blues
TTITLE0=Where What Who
TTITLE1=Other Side Of The You
TTITLE2=Deeds Been Done
TTITLE3=Trains
TTITLE4=Wouldn't Be Dead For Quids
TTITLE5=Sha Na Na
TTITLE6=Old Guitar
TTITLE7=Tumbling Down
TTITLE8=Political Man
TTITLE9=Effie
TTITLE10=Reprise
EXTD=
EXTT0=Where What Who
EXTT1=Other Side Of The You
EXTT2=Deeds Been Done
EXTT3=Trains
EXTT4=Wouldn't Be Dead For Quids
EXTT5=Sha Na Na
EXTT6=Old Guitar
EXTT7=Tumbling Down
EXTT8=Political Man
EXTT9=Effie
EXTT10=Reprise
PLAYORDER=
